<svg  xmlns="http://www.w3.org/2000/svg" xmlns:xlink="http://www.w3.org/1999/xlink">
    <symbol width="17" height="27" id="arrow" viewBox="0 0 17 27">
        <g>
            <path d="M15.0816 13.7679L15.4351 13.4143L15.3849 13.3641L15.4351 13.3138L15.0816 12.9603L3.76787 1.64657L3.41432 1.29301L3.06076 1.64657L1.64655 3.06078L1.293 3.41433L1.64655 3.76789L11.2427 13.3641L1.64655 22.9603L1.293 23.3138L1.64655 23.6674L3.06077 25.0816L3.41432 25.4351L3.76787 25.0816L15.0816 13.7679Z"  stroke="#41B24F"/>
        </g>
    </symbol>
    <symbol width="25" height="12" id="arrow-small" viewBox="0 0 17 27">
        <g>
            <path d="M15.0816 13.7679L15.4351 13.4143L15.3849 13.3641L15.4351 13.3138L15.0816 12.9603L3.76787 1.64657L3.41432 1.29301L3.06076 1.64657L1.64655 3.06078L1.293 3.41433L1.64655 3.76789L11.2427 13.3641L1.64655 22.9603L1.293 23.3138L1.64655 23.6674L3.06077 25.0816L3.41432 25.4351L3.76787 25.0816L15.0816 13.7679Z"  stroke="#41B24F"/>
        </g>
    </symbol>
</svg>
